<svg width="387" height="28" viewBox="0 0 387 28" fill="none" xmlns="http://www.w3.org/2000/svg">
<path d="M6.08 12.36V8.76H11.16C20 8.76 22.28 13.92 22.28 18.4C22.28 22.92 19.96 28 11.16 28H4.56C3.2 28 2.36 27.36 2 26.08L0.32 20.32H4.08L5.04 23.64C5.2 24.16 5.56 24.4 6.08 24.4H10.84C16.4 24.4 18.28 22.32 18.28 18.36C18.28 14.44 16.4 12.36 10.84 12.36H6.08ZM16.52 15.64V19.24H11.44C2.6 19.24 0.32 14.08 0.32 9.6C0.32 5.08 2.64 -1.90735e-06 11.44 -1.90735e-06H18.04C19.4 -1.90735e-06 20.24 0.639999 20.6 1.92L22.28 7.68H18.52L17.56 4.36C17.4 3.84 17.04 3.6 16.52 3.6H11.76C6.2 3.6 4.32 5.68 4.32 9.6C4.32 13.56 6.2 15.64 11.76 15.64H16.52ZM30.5684 15.68V12.08H45.9284V15.68H30.5684ZM35.8084 28C28.1684 28 24.6884 20.52 24.6884 14C24.6884 7.36 28.2084 -1.90735e-06 35.8084 -1.90735e-06H40.6884C48.2884 -1.90735e-06 51.8084 7.36 51.8084 14C51.8084 20.52 48.3284 28 40.6884 28H35.8084ZM36.1284 24.4H40.3684C44.7284 24.4 47.8084 20.8 47.8084 14C47.8084 7.2 44.7284 3.6 40.3684 3.6H36.1284C31.7684 3.6 28.6884 7.2 28.6884 14C28.6884 20.8 31.7684 24.4 36.1284 24.4ZM72.1463 20.32H75.9063L74.2263 26.08C73.8663 27.36 73.0263 28 71.6663 28H65.0663C57.4263 28 53.9463 20.52 53.9463 14C53.9463 7.36 57.4663 -1.90735e-06 65.0663 -1.90735e-06H71.6663C73.0263 -1.90735e-06 73.8663 0.639999 74.2263 1.92L75.9063 7.68H72.1463L71.1863 4.36C71.0263 3.84 70.6663 3.6 70.1463 3.6H65.3863C61.0263 3.6 57.9463 7.2 57.9463 14C57.9463 20.8 61.0263 24.4 65.3863 24.4H70.1463C70.6663 24.4 71.0263 24.16 71.1863 23.64L72.1463 20.32ZM82.9344 28H78.9344V-1.90735e-06H82.9344V28ZM101.812 17.12L104.932 21.92V3.6H99.8519C99.3319 3.6 98.9319 3.88 98.7319 4.36L89.2519 28H84.9319L95.4119 1.84C95.8919 0.599998 96.8119 -1.90735e-06 98.1719 -1.90735e-06H108.932V28H104.572L99.1719 19.72C98.8919 19.28 98.4519 19.04 97.9319 19.04H95.4119V15.44H98.7319C100.092 15.44 101.092 16 101.812 17.12ZM117.388 -1.90735e-06V24.4H127.628C128.148 24.4 128.508 24.16 128.668 23.64L129.628 20.32H133.388L131.708 26.08C131.348 27.36 130.508 28 129.148 28H113.388V-1.90735e-06H117.388ZM166.383 24.4L165.783 28H159.383C158.023 28 157.183 27.36 156.823 26.08L150.663 4.36C150.503 3.84 150.143 3.6 149.623 3.6H149.223V28H145.223V-1.90735e-06H151.143C152.503 -1.90735e-06 153.343 0.639999 153.703 1.92L159.863 23.64C160.023 24.16 160.383 24.4 160.903 24.4H166.383ZM159.703 19.64H163.103C163.623 19.64 163.983 19.4 164.143 18.88L168.703 1.92C169.063 0.639999 169.903 -1.90735e-06 171.263 -1.90735e-06H177.183V28H173.183V3.6H172.783C172.263 3.6 171.903 3.84 171.743 4.36L167.183 21.32C166.823 22.6 165.983 23.24 164.623 23.24H160.703L159.703 19.64ZM197.51 15.48V17.08H186.15C185.63 17.08 185.35 17.36 185.35 17.88V24.4H195.59C196.11 24.4 196.47 24.16 196.63 23.64L197.59 20.32H201.35L199.67 26.08C199.31 27.36 198.47 28 197.11 28H181.35V15.48C181.35 14.16 181.99 13.48 183.35 13.48H190.59L183.07 9.04C181.91 8.36 181.35 7.32 181.35 6V-1.90735e-06H197.11C198.47 -1.90735e-06 199.31 0.639999 199.67 1.92L201.35 7.68H197.59L196.63 4.36C196.47 3.84 196.11 3.6 195.59 3.6H185.35V5.36C185.35 5.88 185.59 6.28 186.03 6.56L195.79 12.44C196.95 13.12 197.51 14.12 197.51 15.48ZM213.681 3.6H208.241V5.36C208.241 5.88 208.481 6.28 208.921 6.56L211.641 8.28C212.081 8.56 212.601 8.68 213.121 8.68H215.801V12.28H212.081C211.561 12.28 211.081 12.2 210.601 11.88L205.961 9.04C204.801 8.32 204.241 7.32 204.241 6V-1.90735e-06H214.001C220.681 -1.90735e-06 225.121 5.64 225.121 14.24C225.121 22.68 220.841 28 214.001 28H204.241V13.48H208.241V24.4H213.681C218.841 24.4 221.121 20.76 221.121 14.52C221.121 7.4 218.161 3.6 213.681 3.6ZM232.427 28H228.427V-1.90735e-06H232.427V28ZM251.304 17.12L254.424 21.92V3.6H249.344C248.824 3.6 248.424 3.88 248.224 4.36L238.744 28H234.424L244.904 1.84C245.384 0.599998 246.304 -1.90735e-06 247.664 -1.90735e-06H258.424V28H254.064L248.664 19.72C248.384 19.28 247.944 19.04 247.424 19.04H244.904V15.44H248.224C249.584 15.44 250.584 16 251.304 17.12ZM289.006 3.6H270.086V-1.90735e-06H291.406C292.766 -1.90735e-06 293.406 0.679999 293.406 2V7.2C293.406 8.52 292.726 9.2 291.406 9.2H282.606C282.086 9.2 281.806 9.48 281.806 10V28H277.806V7.6C277.806 6.28 278.486 5.6 279.806 5.6H289.006C289.526 5.6 289.806 5.32 289.806 4.8V4.4C289.806 3.88 289.526 3.6 289.006 3.6ZM306.382 17.12L309.502 21.92V3.6H304.422C303.902 3.6 303.502 3.88 303.302 4.36L293.822 28H289.502L299.982 1.84C300.462 0.599998 301.382 -1.90735e-06 302.742 -1.90735e-06H313.502V28H309.142L303.742 19.72C303.462 19.28 303.022 19.04 302.502 19.04H299.982V15.44H303.302C304.662 15.44 305.662 16 306.382 17.12ZM321.958 -1.90735e-06V24.4H332.198C332.718 24.4 333.078 24.16 333.238 23.64L334.198 20.32H337.958L336.278 26.08C335.918 27.36 335.078 28 333.718 28H317.958V-1.90735e-06H321.958ZM354.547 4.36L353.187 9.6L360.827 28H356.467L351.507 16.04L348.867 26.08C348.547 27.36 347.627 28 346.267 28H340.067V-1.90735e-06H344.067V24.4H344.747C345.267 24.4 345.667 24.16 345.787 23.64L351.387 1.92C351.707 0.639999 352.587 -1.90735e-06 353.907 -1.90735e-06H361.027V3.6H355.547C355.027 3.6 354.667 3.84 354.547 4.36ZM362.276 -1.90735e-06H366.596L370.396 10.64C370.596 11.12 370.996 11.4 371.516 11.4H377.516C378.036 11.4 378.436 11.12 378.636 10.64L382.436 -1.90735e-06H386.756L381.956 13.16C381.516 14.4 380.556 15 379.196 15H376.516V28H372.516V15H369.836C368.476 15 367.516 14.4 367.076 13.16L362.276 -1.90735e-06Z" fill="#1E4F87"/>
</svg>
